HIERARCHY
ROOT Hips
{
  OFFSET 179.979 97.3047 303.174
  CHANNELS 6 Xposition Yposition Zposition Zrotation Xrotation Yrotation
  JOINT Spine
  {
    OFFSET 0.000859786 9.92346 -1.22733
    CHANNELS 3 Zrotation Xrotation Yrotation
    JOINT Spine1
    {
      OFFSET 0 11.732 0
      CHANNELS 3 Zrotation Xrotation Yrotation
      JOINT Spine2
      {
        OFFSET 0 13.4588 0
        CHANNELS 3 Zrotation Xrotation Yrotation
        JOINT Neck
        {
          OFFSET 2.54812e-05 15.0278 0.877907
          CHANNELS 3 Zrotation Xrotation Yrotation
          JOINT Head
          {
            OFFSET 0 10.3218 3.14243
            CHANNELS 3 Zrotation Xrotation Yrotation
            End Site
            {
              OFFSET 0 0 0
            }
          }
        }
        JOINT LeftShoulder
        {
          OFFSET 6.10582 9.10629 0.757062
          CHANNELS 3 Zrotation Xrotation Yrotation
          JOINT LeftArm
          {
            OFFSET 0 12.9223 0
            CHANNELS 3 Zrotation Xrotation Yrotation
            JOINT LeftForeArm
            {
              OFFSET 0 27.4047 0
              CHANNELS 3 Zrotation Xrotation Yrotation
              JOINT LeftHand
              {
                OFFSET -1.28204e-05 27.6145 0
                CHANNELS 3 Zrotation Xrotation Yrotation
                End Site
                {
                  OFFSET 0 0 0
                }
              }
            }
          }
        }
        JOINT RightShoulder
        {
          OFFSET -6.1057 9.10638 0.757076
          CHANNELS 3 Zrotation Xrotation Yrotation
          JOINT RightArm
          {
            OFFSET 0 12.9223 0
            CHANNELS 3 Zrotation Xrotation Yrotation
            JOINT RightForeArm
            {
              OFFSET 0 27.4047 0
              CHANNELS 3 Zrotation Xrotation Yrotation
              JOINT RightHand
              {
                OFFSET 1.28428e-05 27.6145 1.44975e-05
                CHANNELS 3 Zrotation Xrotation Yrotation
                End Site
                {
                  OFFSET 0 0 0
                }
              }
            }
          }
        }
      }
    }
  }
  JOINT LeftUpLeg
  {
    OFFSET 9.12387 -6.65719 -0.0554031
    CHANNELS 3 Zrotation Xrotation Yrotation
    JOINT LeftLeg
    {
      OFFSET 0 40.5994 0
      CHANNELS 3 Zrotation Xrotation Yrotation
      JOINT LeftFoot
      {
        OFFSET 0 42.099 0
        CHANNELS 3 Zrotation Xrotation Yrotation
        JOINT LeftToeBase
        {
          OFFSET 0 15.7216 0
          CHANNELS 3 Zrotation Xrotation Yrotation
          End Site
          {
            OFFSET 0 0 0
          }
        }
      }
    }
  }
  JOINT RightUpLeg
  {
    OFFSET -9.12503 -6.6556 -0.0553527
    CHANNELS 3 Zrotation Xrotation Yrotation
    JOINT RightLeg
    {
      OFFSET 0 40.5994 0
      CHANNELS 3 Zrotation Xrotation Yrotation
      JOINT RightFoot
      {
        OFFSET 0 42.099 0
        CHANNELS 3 Zrotation Xrotation Yrotation
        JOINT RightToeBase
        {
          OFFSET 0 15.7216 0
          CHANNELS 3 Zrotation Xrotation Yrotation
          End Site
          {
            OFFSET 0 0 0
          }
        }
      }
    }
  }
}
MOTION
Frames:	13
Frame Time:	0.0333333
-9.49898 98.7778 97.1237 -1.63295 -4.9031 -5.58332 0.311829 -5.34548 -0.147004 0.624422 3.25721 -0.378541 0.670101 9.85155 -0.38314 -0.939289 2.6573 -0.865617 3.10033 -5.31759 -1.74931 -88.8175 -21.0176 89.6732 13.6391 7.16466 -12.1462 16.7228 -19.1977 -0.905356 -16.1682 14.9885 3.50679 88.6058 -9.1456 -90.6971 -6.03474 14.5801 25.2995 -24.5849 -20.9354 1.06056 11.4072 0.493249 -16.4685 -177.69 -4.76928 -7.06831 -3.18022 -15.9182 -3.39621 19.5547 80.577 -17.1828 -0.965253 26.367 -3.6023 -176.594 -4.38359 -3.4604 3.97242 -16.9987 13.4336 -41.7974 75.4508 40.521 0.963536 26.3682 3.55537 
-9.4938 98.778 97.1016 -1.63092 -4.90506 -5.59542 0.308018 -5.34267 -0.143933 0.616745 3.26279 -0.371348 0.661597 9.85714 -0.375853 -0.931838 2.64486 -0.865651 3.09706 -5.30778 -1.74408 -88.8173 -21.0268 89.6736 13.6491 7.18043 -12.1544 16.7864 -19.2081 -0.905413 -16.1667 14.9543 3.50451 88.6086 -9.13861 -90.6963 -6.03379 14.5913 25.3296 -24.6476 -20.9263 1.06049 11.388 0.472286 -16.4511 -177.692 -4.76448 -7.07031 -3.19138 -15.9181 -3.3996 19.5283 80.5681 -17.1512 -0.965253 26.367 -3.6023 -176.597 -4.36611 -3.47643 3.97271 -17.0068 13.4379 -41.811 75.4506 40.5335 0.963536 26.3682 3.55537 
-9.47235 98.7788 97.0277 -1.62209 -4.91526 -5.62731 0.29618 -5.33244 -0.135376 0.592952 3.28343 -0.35104 0.635392 9.87776 -0.355313 -0.897534 2.61555 -0.865827 3.08484 -5.30128 -1.72708 -88.8229 -21.0709 89.6732 13.7029 7.23455 -12.1888 16.9996 -19.2772 -0.905794 -16.1724 14.8913 3.65676 88.6247 -9.11371 -90.6998 -6.03252 14.6247 25.4406 -24.8133 -20.9023 1.06032 11.2528 0.304148 -16.4207 -177.702 -4.72582 -7.11789 -3.21058 -15.9183 -3.38595 19.4484 80.5447 -17.0519 -0.965253 26.367 -3.6023 -176.616 -4.30502 -3.52696 3.97742 -17.0476 13.4557 -41.8737 75.4533 40.5965 0.963536 26.3682 3.55537 
-9.44329 98.7797 96.9537 -1.60833 -4.92894 -5.64613 0.286186 -5.32126 -0.1286 0.572804 3.30578 -0.334824 0.613394 9.90014 -0.338912 -0.862749 2.59772 -0.863916 3.07243 -5.33046 -1.70968 -88.8349 -21.0827 89.6718 13.7242 7.2886 -12.2332 17.2209 -19.3607 -0.91077 -16.1831 14.8364 3.80765 88.6427 -9.09547 -90.7025 -6.04308 14.6584 25.5177 -24.9058 -20.8709 1.0601 10.9896 -0.220295 -16.5826 -177.723 -4.69228 -7.1766 -3.21953 -15.9209 -3.3643 19.3685 80.5259 -16.9475 -0.965253 26.367 -3.6023 -176.65 -4.23806 -3.56721 3.99626 -17.1061 13.4771 -41.9542 75.4628 40.6783 0.963536 26.3682 3.55537 
-9.40485 98.7805 96.8808 -1.59144 -4.94505 -5.66132 0.279425 -5.30989 -0.121343 0.559134 3.32868 -0.318567 0.597809 9.92305 -0.32242 -0.845029 2.58466 -0.855116 3.09445 -5.36052 -1.69774 -88.8524 -21.0733 89.672 13.7381 7.34696 -12.2953 17.4373 -19.4547 -0.916355 -16.1836 14.8006 3.89326 88.6593 -9.08751 -90.7046 -6.0603 14.698 25.4965 -24.9476 -20.8606 1.06003 10.6297 -1.19494 -16.8372 -177.759 -4.66172 -7.2459 -3.21824 -15.9283 -3.33892 19.2839 80.5114 -16.8311 -0.965253 26.367 -3.6023 -176.701 -4.16596 -3.60793 4.03135 -17.1793 13.503 -42.0515 75.4782 40.7778 0.963536 26.3682 3.55537 
-9.36155 98.7814 96.8086 -1.57058 -4.96529 -5.6724 0.27464 -5.29818 -0.114676 0.549473 3.35214 -0.303954 0.58643 9.94652 -0.307653 -0.820592 2.57873 -0.851945 3.0844 -5.39735 -1.68314 -88.8738 -21.0411 89.6743 13.7408 7.40419 -12.3815 17.6405 -19.5574 -0.921795 -16.2051 14.797 3.92836 88.6785 -9.08478 -90.7065 -6.08022 14.7417 25.3634 -25.0207 -20.9158 1.06042 10.3474 -2.18638 -16.7546 -177.793 -4.63284 -7.30303 -3.23288 -15.936 -3.31491 19.1892 80.4975 -16.7056 -0.965253 26.367 -3.6023 -176.763 -4.09172 -3.65463 4.07748 -17.2632 13.5365 -42.17 75.4956 40.8989 0.963536 26.3682 3.55537 
-9.31751 98.7775 96.7383 -1.54293 -4.98358 -5.67964 0.269821 -5.2882 -0.112717 0.539796 3.37213 -0.298809 0.576153 9.96653 -0.302425 -0.804399 2.5679 -0.844287 3.05873 -5.41375 -1.66472 -88.8995 -21.0184 89.6755 13.754 7.41275 -12.3298 17.7443 -19.6346 -0.925943 -16.1996 14.8331 3.78381 88.6988 -9.07797 -90.7089 -6.11107 14.7874 25.3807 -25.1982 -20.9477 1.06353 10.1697 -2.79465 -16.7781 -177.825 -4.60128 -7.38531 -3.25411 -15.9482 -3.26895 19.0146 80.4915 -16.4963 -0.965253 26.367 -3.6023 -176.834 -4.00774 -3.71289 4.13076 -17.3618 13.5804 -42.3248 75.5158 41.0569 0.963536 26.3682 3.55537 
-9.27324 98.7724 96.6711 -1.5084 -4.99996 -5.68982 0.266401 -5.27996 -0.11524 0.531043 3.3886 -0.302379 0.56783 9.98298 -0.306103 -0.801463 2.55104 -0.832796 3.0199 -5.3975 -1.64563 -88.9315 -21.0093 89.6754 13.7724 7.40206 -12.2862 17.799 -19.6946 -0.928331 -16.2189 14.8872 3.69253 88.7177 -9.07499 -90.7103 -6.16419 14.8213 25.434 -25.4272 -20.9736 1.06648 10.0582 -3.06392 -16.6995 -177.866 -4.56204 -7.51172 -3.26134 -15.9714 -3.19449 18.743 80.4939 -16.1907 -0.965253 26.367 -3.6023 -176.912 -3.91903 -3.77645 4.18674 -17.4711 13.6258 -42.503 75.5426 41.2387 0.963536 26.3682 3.55537 
-9.22986 98.7668 96.6081 -1.46369 -5.01907 -5.69214 0.263182 -5.27224 -0.122624 0.521066 3.40404 -0.315361 0.559377 9.99844 -0.31925 -0.810402 2.56412 -0.812774 3.00576 -5.42533 -1.62599 -88.9601 -20.9943 89.676 13.7748 7.3734 -12.3649 17.8469 -19.6786 -0.929559 -16.2256 14.9393 3.76617 88.7312 -9.05102 -90.7136 -6.19644 14.8298 25.4234 -25.6578 -20.9837 1.06929 9.97789 -3.24107 -16.7335 -177.921 -4.52365 -7.57342 -3.27915 -15.9884 -3.15711 18.5942 80.4844 -16.0109 -0.965253 26.367 -3.6023 -176.999 -3.83191 -3.85887 4.25029 -17.5854 13.6881 -42.729 75.5685 41.4709 0.963536 26.3682 3.55537 
-9.19399 98.7587 96.551 -1.41108 -5.04419 -5.66448 0.259319 -5.2639 -0.135282 0.515985 3.42067 -0.340128 0.557288 10.015 -0.344366 -0.836028 2.57759 -0.790333 3.00957 -5.45133 -1.61312 -88.969 -20.9448 89.6801 13.7402 7.3856 -12.4245 17.9041 -19.7059 -0.930692 -16.2178 15.0268 3.85363 88.7312 -9.04867 -90.7158 -6.23199 14.8317 25.3878 -25.8681 -20.9972 1.07227 9.9379 -3.3069 -16.8114 -177.983 -4.48995 -7.60031 -3.28909 -16.0138 -3.12424 18.4726 80.4805 -15.8646 -0.965253 26.367 -3.6023 -177.08 -3.75232 -4.00176 4.32689 -17.7038 13.8078 -43.0922 75.58 41.8487 0.963536 26.3682 3.55537 
-9.1641 98.76 96.5004 -1.37291 -5.07013 -5.63199 0.256291 -5.25574 -0.148613 0.510963 3.43693 -0.366376 0.557152 10.0313 -0.37122 -0.83081 2.60091 -0.777285 3.00439 -5.48239 -1.59692 -88.9765 -20.8927 89.6847 13.6941 7.39948 -12.4926 17.9793 -19.7355 -0.931867 -16.1992 15.0656 3.89662 88.7351 -9.05528 -90.7159 -6.26328 14.8327 25.3602 -26.0733 -21.033 1.07576 9.85916 -3.23145 -16.9273 -178.037 -4.47396 -7.59186 -3.28657 -16.0167 -3.10876 18.4097 80.4649 -15.7861 -0.965253 26.367 -3.6023 -177.142 -3.72071 -4.06365 4.3738 -17.7425 13.8727 -43.2974 75.5827 42.0493 0.963536 26.3682 3.55537 
-9.13904 98.7625 96.4523 -1.3487 -5.09046 -5.61641 0.254641 -5.24845 -0.15779 0.507948 3.4515 -0.384734 0.556886 10.0458 -0.389922 -0.767219 2.63381 -0.782977 2.96639 -5.51886 -1.57255 -88.9848 -20.8728 89.6862 13.6906 7.41186 -12.561 18.053 -19.7665 -0.933453 -16.1675 15.0733 3.90065 88.7433 -9.06508 -90.7146 -6.28849 14.8396 25.3685 -26.2988 -21.0455 1.07836 9.82208 -3.22191 -16.9519 -178.079 -4.47217 -7.57475 -3.28188 -15.9918 -3.1048 18.3665 80.4368 -15.735 -0.965253 26.367 -3.6023 -177.183 -3.73124 -4.0396 4.37575 -17.7022 13.8648 -43.3094 75.5786 42.0299 0.963536 26.3682 3.55537 
-9.11867 98.7651 96.4063 -1.33041 -5.10249 -5.61083 0.253075 -5.24302 -0.163771 0.507822 3.46235 -0.396688 0.556785 10.0567 -0.402081 -0.704348 2.66486 -0.796311 2.94619 -5.55042 -1.55917 -88.9721 -20.8701 89.6868 13.7118 7.44828 -12.6144 18.1331 -19.8118 -0.935834 -16.1517 15.0983 3.89851 88.7499 -9.07766 -90.7139 -6.31276 14.8637 25.4157 -26.53 -21.038 1.08054 9.84431 -3.28144 -16.9641 -178.115 -4.46794 -7.56326 -3.27671 -15.9565 -3.10559 18.3229 80.4004 -15.6857 -0.965253 26.367 -3.6023 -177.217 -3.76036 -4.06577 4.38898 -17.6082 13.8799 -43.3266 75.5524 42.0167 0.963536 26.3682 3.55537 
